<svg width="16" height="12" viewBox="0 0 16 12" fill="none" xmlns="http://www.w3.org/2000/svg">
<path d="M0.608 11V9.928C1.55733 9.01067 2.37333 8.19467 3.056 7.48C3.74933 6.75467 4.28267 6.09867 4.656 5.512C5.02933 4.91467 5.216 4.36 5.216 3.848C5.216 3.31467 5.072 2.888 4.784 2.568C4.496 2.248 4.08 2.088 3.536 2.088C3.14133 2.088 2.77867 2.2 2.448 2.424C2.128 2.648 1.82933 2.91467 1.552 3.224L0.528 2.2C0.997333 1.69867 1.48267 1.31467 1.984 1.048C2.48533 0.770666 3.08267 0.632 3.776 0.632C4.75733 0.632 5.536 0.914666 6.112 1.48C6.69867 2.04533 6.992 2.80267 6.992 3.752C6.992 4.34933 6.82133 4.96267 6.48 5.592C6.14933 6.21067 5.70133 6.84533 5.136 7.496C4.58133 8.14667 3.968 8.82933 3.296 9.544C3.56267 9.52267 3.85067 9.50133 4.16 9.48C4.46933 9.448 4.74667 9.432 4.992 9.432H7.488V11H0.608ZM12.2991 11.192C11.2431 11.192 10.4005 10.7333 9.77113 9.816C9.15246 8.89867 8.84313 7.58133 8.84313 5.864C8.84313 4.14667 9.15246 2.84533 9.77113 1.96C10.4005 1.07467 11.2431 0.632 12.2991 0.632C13.3551 0.632 14.1925 1.07467 14.8111 1.96C15.4405 2.84533 15.7551 4.14667 15.7551 5.864C15.7551 7.58133 15.4405 8.89867 14.8111 9.816C14.1925 10.7333 13.3551 11.192 12.2991 11.192ZM12.2991 9.752C12.6298 9.752 12.9231 9.62933 13.1791 9.384C13.4351 9.128 13.6325 8.71733 13.7711 8.152C13.9205 7.58667 13.9951 6.824 13.9951 5.864C13.9951 4.904 13.9205 4.14667 13.7711 3.592C13.6325 3.03733 13.4351 2.648 13.1791 2.424C12.9231 2.18933 12.6298 2.072 12.2991 2.072C11.9791 2.072 11.6911 2.18933 11.4351 2.424C11.1791 2.648 10.9765 3.03733 10.8271 3.592C10.6778 4.14667 10.6031 4.904 10.6031 5.864C10.6031 6.824 10.6778 7.58667 10.8271 8.152C10.9765 8.71733 11.1791 9.128 11.4351 9.384C11.6911 9.62933 11.9791 9.752 12.2991 9.752Z" fill="#79505E"/>
</svg>
