<svg width="18" height="13" viewBox="0 0 18 13" fill="none" xmlns="http://www.w3.org/2000/svg">
<path d="M4.5 12.216C3.78 12.216 3.138 12.084 2.574 11.82C2.01 11.544 1.56 11.166 1.224 10.686C0.9 10.206 0.738 9.666 0.738 9.066C0.738 8.562 0.84 8.118 1.044 7.734C1.26 7.338 1.53 6.996 1.854 6.708C2.19 6.408 2.538 6.162 2.898 5.97V5.898C2.478 5.598 2.106 5.232 1.782 4.8C1.458 4.368 1.296 3.852 1.296 3.252C1.296 2.664 1.44 2.148 1.728 1.704C2.016 1.26 2.406 0.918 2.898 0.678C3.39 0.426 3.942 0.299999 4.554 0.299999C5.55 0.299999 6.336 0.587999 6.912 1.164C7.5 1.74 7.794 2.472 7.794 3.36C7.794 3.756 7.71 4.134 7.542 4.494C7.374 4.842 7.17 5.16 6.93 5.448C6.69 5.724 6.45 5.952 6.21 6.132V6.204C6.558 6.396 6.882 6.624 7.182 6.888C7.482 7.152 7.728 7.47 7.92 7.842C8.112 8.202 8.208 8.64 8.208 9.156C8.208 9.72 8.052 10.236 7.74 10.704C7.44 11.172 7.008 11.544 6.444 11.82C5.892 12.084 5.244 12.216 4.5 12.216ZM5.31 5.736C5.694 5.388 5.988 5.022 6.192 4.638C6.408 4.254 6.516 3.852 6.516 3.432C6.516 2.868 6.342 2.388 5.994 1.992C5.646 1.596 5.154 1.398 4.518 1.398C3.99 1.398 3.546 1.566 3.186 1.902C2.838 2.238 2.664 2.688 2.664 3.252C2.664 3.708 2.784 4.086 3.024 4.386C3.276 4.686 3.606 4.944 4.014 5.16C4.422 5.364 4.854 5.556 5.31 5.736ZM4.536 11.118C5.208 11.118 5.748 10.932 6.156 10.56C6.576 10.176 6.786 9.69 6.786 9.102C6.786 8.61 6.642 8.208 6.354 7.896C6.066 7.584 5.682 7.314 5.202 7.086C4.734 6.858 4.224 6.636 3.672 6.42C3.216 6.72 2.832 7.08 2.52 7.5C2.22 7.92 2.07 8.394 2.07 8.922C2.07 9.558 2.304 10.086 2.772 10.506C3.252 10.914 3.84 11.118 4.536 11.118ZM13.4293 12.216C12.2773 12.216 11.3713 11.7 10.7113 10.668C10.0633 9.624 9.73927 8.142 9.73927 6.222C9.73927 4.29 10.0633 2.82 10.7113 1.812C11.3713 0.803999 12.2773 0.299999 13.4293 0.299999C14.5693 0.299999 15.4633 0.803999 16.1113 1.812C16.7713 2.82 17.1013 4.29 17.1013 6.222C17.1013 8.142 16.7713 9.624 16.1113 10.668C15.4633 11.7 14.5693 12.216 13.4293 12.216ZM13.4293 11.028C14.1013 11.028 14.6413 10.65 15.0493 9.894C15.4573 9.126 15.6613 7.902 15.6613 6.222C15.6613 4.542 15.4573 3.336 15.0493 2.604C14.6413 1.86 14.1013 1.488 13.4293 1.488C12.7573 1.488 12.2113 1.86 11.7913 2.604C11.3833 3.336 11.1793 4.542 11.1793 6.222C11.1793 7.902 11.3833 9.126 11.7913 9.894C12.2113 10.65 12.7573 11.028 13.4293 11.028Z" fill="black"/>
</svg>
