<svg width="70" height="35" viewBox="0 0 70 35" fill="none" xmlns="http://www.w3.org/2000/svg">
<rect width="70" height="35" rx="17.5" fill="url(#paint0_linear_4249_9795)"/>
<path d="M30.5 24.216C29.78 24.216 29.138 24.084 28.574 23.82C28.01 23.544 27.56 23.166 27.224 22.686C26.9 22.206 26.738 21.666 26.738 21.066C26.738 20.562 26.84 20.118 27.044 19.734C27.26 19.338 27.53 18.996 27.854 18.708C28.19 18.408 28.538 18.162 28.898 17.97V17.898C28.478 17.598 28.106 17.232 27.782 16.8C27.458 16.368 27.296 15.852 27.296 15.252C27.296 14.664 27.44 14.148 27.728 13.704C28.016 13.26 28.406 12.918 28.898 12.678C29.39 12.426 29.942 12.3 30.554 12.3C31.55 12.3 32.336 12.588 32.912 13.164C33.5 13.74 33.794 14.472 33.794 15.36C33.794 15.756 33.71 16.134 33.542 16.494C33.374 16.842 33.17 17.16 32.93 17.448C32.69 17.724 32.45 17.952 32.21 18.132V18.204C32.558 18.396 32.882 18.624 33.182 18.888C33.482 19.152 33.728 19.47 33.92 19.842C34.112 20.202 34.208 20.64 34.208 21.156C34.208 21.72 34.052 22.236 33.74 22.704C33.44 23.172 33.008 23.544 32.444 23.82C31.892 24.084 31.244 24.216 30.5 24.216ZM31.31 17.736C31.694 17.388 31.988 17.022 32.192 16.638C32.408 16.254 32.516 15.852 32.516 15.432C32.516 14.868 32.342 14.388 31.994 13.992C31.646 13.596 31.154 13.398 30.518 13.398C29.99 13.398 29.546 13.566 29.186 13.902C28.838 14.238 28.664 14.688 28.664 15.252C28.664 15.708 28.784 16.086 29.024 16.386C29.276 16.686 29.606 16.944 30.014 17.16C30.422 17.364 30.854 17.556 31.31 17.736ZM30.536 23.118C31.208 23.118 31.748 22.932 32.156 22.56C32.576 22.176 32.786 21.69 32.786 21.102C32.786 20.61 32.642 20.208 32.354 19.896C32.066 19.584 31.682 19.314 31.202 19.086C30.734 18.858 30.224 18.636 29.672 18.42C29.216 18.72 28.832 19.08 28.52 19.5C28.22 19.92 28.07 20.394 28.07 20.922C28.07 21.558 28.304 22.086 28.772 22.506C29.252 22.914 29.84 23.118 30.536 23.118ZM39.4293 24.216C38.2773 24.216 37.3713 23.7 36.7113 22.668C36.0633 21.624 35.7393 20.142 35.7393 18.222C35.7393 16.29 36.0633 14.82 36.7113 13.812C37.3713 12.804 38.2773 12.3 39.4293 12.3C40.5693 12.3 41.4633 12.804 42.1113 13.812C42.7713 14.82 43.1013 16.29 43.1013 18.222C43.1013 20.142 42.7713 21.624 42.1113 22.668C41.4633 23.7 40.5693 24.216 39.4293 24.216ZM39.4293 23.028C40.1013 23.028 40.6413 22.65 41.0493 21.894C41.4573 21.126 41.6613 19.902 41.6613 18.222C41.6613 16.542 41.4573 15.336 41.0493 14.604C40.6413 13.86 40.1013 13.488 39.4293 13.488C38.7573 13.488 38.2113 13.86 37.7913 14.604C37.3833 15.336 37.1793 16.542 37.1793 18.222C37.1793 19.902 37.3833 21.126 37.7913 21.894C38.2113 22.65 38.7573 23.028 39.4293 23.028Z" fill="black"/>
<defs>
<linearGradient id="paint0_linear_4249_9795" x1="35" y1="-14.1929" x2="35" y2="26.5945" gradientUnits="userSpaceOnUse">
<stop stop-color="#FFEAC7"/>
<stop offset="1" stop-color="#FDF7ED"/>
</linearGradient>
</defs>
</svg>
