<svg width="26" height="27" viewBox="0 0 26 27" fill="none" xmlns="http://www.w3.org/2000/svg">
<path fill-rule="evenodd" clip-rule="evenodd" d="M6.5 1.16978C6.5 0.956918 6.4144 0.752776 6.26202 0.602261C6.10965 0.451746 5.90299 0.367188 5.6875 0.367188C5.47201 0.367188 5.26535 0.451746 5.11298 0.602261C4.9606 0.752776 4.875 0.956918 4.875 1.16978V1.97237H3.25C2.38805 1.97237 1.5614 2.3106 0.951903 2.91266C0.34241 3.51473 0 4.33129 0 5.18274L0 6.78792H26V5.18274C26 4.33129 25.6576 3.51473 25.0481 2.91266C24.4386 2.3106 23.612 1.97237 22.75 1.97237H21.125V1.16978C21.125 0.956918 21.0394 0.752776 20.887 0.602261C20.7347 0.451746 20.528 0.367188 20.3125 0.367188C20.097 0.367188 19.8903 0.451746 19.738 0.602261C19.5856 0.752776 19.5 0.956918 19.5 1.16978V1.97237H6.5V1.16978ZM0 8.3931H26V22.8397C26 23.6912 25.6576 24.5078 25.0481 25.1098C24.4386 25.7119 23.612 26.0501 22.75 26.0501H3.25C2.38805 26.0501 1.5614 25.7119 0.951903 25.1098C0.34241 24.5078 0 23.6912 0 22.8397V8.3931ZM15.4375 11.6035C15.222 11.6035 15.0153 11.688 14.863 11.8385C14.7106 11.9891 14.625 12.1932 14.625 12.4061V14.0112C14.625 14.2241 14.7106 14.4282 14.863 14.5788C15.0153 14.7293 15.222 14.8138 15.4375 14.8138H17.0625C17.278 14.8138 17.4847 14.7293 17.637 14.5788C17.7894 14.4282 17.875 14.2241 17.875 14.0112V12.4061C17.875 12.1932 17.7894 11.9891 17.637 11.8385C17.4847 11.688 17.278 11.6035 17.0625 11.6035H15.4375ZM20.3125 11.6035C20.097 11.6035 19.8903 11.688 19.738 11.8385C19.5856 11.9891 19.5 12.1932 19.5 12.4061V14.0112C19.5 14.2241 19.5856 14.4282 19.738 14.5788C19.8903 14.7293 20.097 14.8138 20.3125 14.8138H21.9375C22.153 14.8138 22.3597 14.7293 22.512 14.5788C22.6644 14.4282 22.75 14.2241 22.75 14.0112V12.4061C22.75 12.1932 22.6644 11.9891 22.512 11.8385C22.3597 11.688 22.153 11.6035 21.9375 11.6035H20.3125ZM3.25 17.2216C3.25 17.0087 3.3356 16.8046 3.48798 16.6541C3.64035 16.5036 3.84701 16.419 4.0625 16.419H5.6875C5.90299 16.419 6.10965 16.5036 6.26202 16.6541C6.4144 16.8046 6.5 17.0087 6.5 17.2216V18.8268C6.5 19.0397 6.4144 19.2438 6.26202 19.3943C6.10965 19.5448 5.90299 19.6294 5.6875 19.6294H4.0625C3.84701 19.6294 3.64035 19.5448 3.48798 19.3943C3.3356 19.2438 3.25 19.0397 3.25 18.8268V17.2216ZM8.9375 16.419C8.72201 16.419 8.51535 16.5036 8.36298 16.6541C8.2106 16.8046 8.125 17.0087 8.125 17.2216V18.8268C8.125 19.0397 8.2106 19.2438 8.36298 19.3943C8.51535 19.5448 8.72201 19.6294 8.9375 19.6294H10.5625C10.778 19.6294 10.9847 19.5448 11.137 19.3943C11.2894 19.2438 11.375 19.0397 11.375 18.8268V17.2216C11.375 17.0087 11.2894 16.8046 11.137 16.6541C10.9847 16.5036 10.778 16.419 10.5625 16.419H8.9375Z" fill="url(#paint0_radial_3699_17228)"/>
<defs>
<radialGradient id="paint0_radial_3699_17228" cx="0" cy="0" r="1" gradientUnits="userSpaceOnUse" gradientTransform="translate(13 30.3306) rotate(-90) scale(45.5872 46.15)">
<stop stop-color="#2A3D56"/>
<stop offset="1" stop-color="#325F99"/>
</radialGradient>
</defs>
</svg>
