<svg width="30" height="23" viewBox="0 0 30 23" fill="none" xmlns="http://www.w3.org/2000/svg">
<g clip-path="url(#clip0_3699_17214)">
<path d="M0 11.0254C0.0998956 10.7365 0.238817 10.4632 0.41278 10.2132C0.691168 9.85664 1.07737 9.60326 1.51162 9.49223C1.94586 9.38121 2.40397 9.41872 2.81514 9.59897C3.2263 9.77921 3.56762 10.0922 3.78629 10.4894C4.00496 10.8867 4.0888 11.3461 4.02487 11.7966C3.96093 12.2472 3.75279 12.6638 3.4326 12.982C3.11241 13.3002 2.69802 13.5024 2.25351 13.5571C1.80899 13.6119 1.35911 13.5162 0.973434 13.2849C0.58776 13.0536 0.287749 12.6996 0.119835 12.2776L0 11.9798V11.0254Z" fill="#A3B0C2"/>
<path d="M0 1.62314C0.0974686 1.22098 0.308055 0.856393 0.606004 0.573916C0.903952 0.291439 1.27638 0.1033 1.67778 0.0324911C2.07091 -0.0297621 2.47338 0.0263725 2.83549 0.193983C3.19761 0.361593 3.50351 0.633332 3.71546 0.975662C3.92742 1.31799 4.03614 1.71593 4.0282 2.12036C4.02026 2.52478 3.89602 2.91798 3.67081 3.25144C3.44559 3.5849 3.12925 3.84402 2.76085 3.9968C2.39244 4.14959 1.9881 4.18937 1.59772 4.11122C1.20734 4.03307 0.84799 3.84043 0.564067 3.55705C0.280144 3.27367 0.0840553 2.91196 0 2.51659V1.62314Z" fill="#A3B0C2"/>
<path d="M-0.00118884 20.4891C0.0837203 20.1089 0.271492 19.7603 0.540894 19.4829C0.810297 19.2054 1.15063 19.01 1.52347 18.9187C1.89544 18.8262 2.28553 18.8421 2.649 18.9647C3.01248 19.0872 3.33461 19.3115 3.57847 19.6116C3.82233 19.9118 3.97801 20.2758 4.0277 20.6618C4.07739 21.0479 4.01909 21.4403 3.85943 21.7942C3.69976 22.148 3.44522 22.449 3.12501 22.6625C2.8048 22.876 2.43188 22.9935 2.04902 23.0014C1.66615 23.0093 1.28885 22.9073 0.960379 22.7072C0.631908 22.5071 0.365573 22.2168 0.191913 21.8699C0.11202 21.7142 0.0587654 21.545 -0.0078125 21.3825L-0.00118884 20.4891Z" fill="#A3B0C2"/>
<path d="M18.4288 13.0604H8.54198C8.18856 13.0794 7.83935 12.975 7.55234 12.7644C7.26533 12.5539 7.05777 12.2499 6.96409 11.9029C6.90419 11.6801 6.89403 11.4464 6.93439 11.2191C6.97474 10.9917 7.0646 10.7764 7.19734 10.5889C7.33009 10.4014 7.50239 10.2464 7.70163 10.1353C7.90088 10.0242 8.12204 9.9598 8.34892 9.94678H28.3223C28.7284 9.92883 29.1249 10.0756 29.4246 10.3549C29.7242 10.6342 29.9025 11.023 29.9201 11.4359C29.9378 11.8488 29.7934 12.2519 29.5187 12.5565C29.244 12.8612 28.8616 13.0424 28.4555 13.0604C27.9761 13.0604 27.4967 13.0604 27.024 13.0604H18.4288Z" fill="#A3B0C2"/>
<path d="M18.447 22.5894H8.46033C8.07241 22.6079 7.69224 22.4746 7.39807 22.2169C7.1039 21.9591 6.9181 21.5965 6.87886 21.2038C6.83963 20.811 6.94996 20.4178 7.18717 20.1052C7.42438 19.7926 7.77039 19.5843 8.15406 19.5232C8.33726 19.497 8.52175 19.4812 8.70667 19.4758H28.1341C28.5558 19.4391 28.9774 19.5463 29.3325 19.7804C29.5942 19.9674 29.7911 20.2336 29.8951 20.5412C29.9992 20.8487 30.005 21.1818 29.9117 21.4929C29.8219 21.8098 29.633 22.0883 29.3734 22.2862C29.1139 22.484 28.798 22.5905 28.4736 22.5894H18.447Z" fill="#A3B0C2"/>
<path d="M18.464 0.420854H28.4507C28.8377 0.404763 29.2161 0.539677 29.5084 0.797978C29.8008 1.05628 29.9849 1.41842 30.0232 1.81027C30.0615 2.20211 29.951 2.59401 29.7144 2.90574C29.4777 3.21746 29.1328 3.42544 28.7502 3.48707C28.5494 3.51398 28.347 3.52754 28.1444 3.52768H8.83679C8.59278 3.53376 8.34897 3.50874 8.11108 3.45321C7.76452 3.3557 7.46186 3.13931 7.25435 2.84075C7.04684 2.54219 6.9473 2.17987 6.97262 1.8152C7.00914 1.43044 7.18575 1.07343 7.46781 0.814214C7.74987 0.555002 8.11702 0.412292 8.49724 0.414079L18.464 0.420854Z" fill="#A3B0C2"/>
</g>
<defs>
<clipPath id="clip0_3699_17214">
<rect width="30" height="23" fill="white"/>
</clipPath>
</defs>
</svg>
