<svg width="60" height="60" viewBox="0 0 60 60" fill="none" xmlns="http://www.w3.org/2000/svg">
<g filter="url(#filter0_d_3571_14575)">
<circle cx="30" cy="24" r="24" fill="white"/>
</g>
<g clip-path="url(#clip0_3571_14575)">
<path d="M19.6777 38.1816C19.2232 37.9422 19.0868 37.5648 19.0914 37.0736C19.108 35.2832 19.1186 33.492 19.0914 31.7015C19.0649 29.8756 20.1974 28.3703 21.7761 27.8606C21.8454 27.8468 21.9066 27.8075 21.947 27.7508C21.9873 27.6941 22.0037 27.6244 21.9927 27.5563C21.9836 27.317 22.0049 27.0754 21.9874 26.8368C21.967 26.568 22.0533 26.4675 22.3503 26.4675C24.2116 26.4801 26.0728 26.4734 27.9341 26.4742C28.303 26.4742 28.3045 26.4779 28.3068 26.8509C28.3068 27.0909 28.3144 27.3317 28.3068 27.5711C28.3 27.7424 28.3629 27.8347 28.5341 27.9012C30.2219 28.566 31.1453 29.9015 31.1468 31.6757C31.1468 33.4757 31.137 35.2758 31.1537 37.0758C31.1582 37.5655 31.0196 37.9422 30.5681 38.1838L19.6777 38.1816Z" fill="#79505E"/>
<path d="M33.6834 38.1818C33.1622 37.9218 32.9584 37.5348 33.1084 37.0923C33.1623 36.9188 33.2729 36.7672 33.4233 36.6605C33.5737 36.5538 33.7557 36.498 33.9417 36.5014C34.4045 36.4955 34.8682 36.4941 35.3303 36.5014C35.5219 36.5051 35.606 36.4453 35.6007 36.2488C35.5916 35.8618 35.5901 35.4733 35.6007 35.0862C35.6068 34.8779 35.5249 34.8151 35.3174 34.8174C34.6 34.8262 33.8781 34.8225 33.1637 34.8174C32.6425 34.8174 32.3009 34.5485 32.2153 34.0787C32.1441 33.6931 32.3956 33.2965 32.8463 33.1495C33.0463 33.0845 33.047 32.9656 33.047 32.8134C33.047 31.7981 33.047 30.7824 33.047 29.7666C33.047 26.2497 33.047 22.7328 33.047 19.2159C33.047 18.9005 33.094 18.6065 33.3425 18.3805C33.5114 18.2296 33.7347 18.1499 33.9637 18.1589C35.6454 18.1589 37.3279 18.1589 39.0096 18.1589C39.5323 18.1589 39.905 18.4795 39.9187 18.9884C39.9437 19.7536 39.924 20.5203 39.9293 21.2863C39.9293 21.4968 39.8081 21.5219 39.6361 21.5212C38.9649 21.5212 38.2937 21.5212 37.6233 21.5212C37.5385 21.5212 37.4529 21.5212 37.368 21.5212C36.8643 21.5441 36.4946 21.8905 36.4938 22.3337C36.4931 22.7768 36.8635 23.1336 37.3658 23.1425C38.1029 23.155 38.8399 23.1565 39.577 23.1425C39.849 23.1366 39.9482 23.223 39.9338 23.4896C39.9156 23.8215 39.9156 24.1541 39.9338 24.486C39.949 24.7564 39.8649 24.8635 39.5687 24.8554C38.9081 24.8354 38.2468 24.8487 37.5847 24.8487C37.5188 24.8487 37.4529 24.8487 37.387 24.8487C36.8665 24.8672 36.4863 25.218 36.4938 25.6671C36.5014 26.1162 36.8772 26.4626 37.4029 26.4678C38.1203 26.4759 38.8422 26.4818 39.5566 26.4678C39.8384 26.4612 39.9497 26.5417 39.9353 26.8253C39.9141 27.1843 39.9232 27.5447 39.9315 27.9052C39.9369 28.1083 39.8512 28.1792 39.6452 28.177C38.899 28.1696 38.1521 28.1674 37.4059 28.177C36.7325 28.1859 36.3219 28.7421 36.5726 29.2983C36.7317 29.6543 37.04 29.7924 37.4173 29.7954C38.1347 29.8013 38.8566 29.8101 39.571 29.7909C39.8656 29.7835 39.9422 29.887 39.9376 30.1602C39.924 31.037 39.9376 31.9138 39.93 32.7905C39.93 32.9841 39.9535 33.1045 40.1846 33.1739C40.38 33.2357 40.5462 33.3637 40.6532 33.5347C40.7602 33.7057 40.8009 33.9083 40.7679 34.106C40.7353 34.3088 40.6283 34.4931 40.4668 34.6248C40.3053 34.7564 40.1003 34.8264 39.8899 34.8218C39.1619 34.827 38.4347 34.8314 37.7074 34.8218C37.4673 34.8181 37.3635 34.8779 37.3764 35.1305C37.3946 35.508 37.3862 35.8869 37.3764 36.2651C37.3764 36.4453 37.4461 36.5103 37.6279 36.5074C38.0529 36.4992 38.4786 36.5074 38.9036 36.5074C39.4634 36.5074 39.7808 36.7289 39.8967 37.1847C39.9997 37.5909 39.7846 37.9492 39.2907 38.1885L33.6834 38.1818Z" fill="#79505E"/>
<path d="M36.7491 9.81812C37.215 10.0006 37.3885 10.3521 37.3862 10.8249C37.3794 12.0436 37.3915 13.2624 37.3779 14.4804C37.3779 14.7507 37.44 14.8829 37.7385 14.8423C37.861 14.8338 37.9841 14.8338 38.1066 14.8423C38.721 14.846 39.0755 15.1858 39.0861 15.7804C39.0998 16.5427 39.0998 16.5427 38.3142 16.5427C36.9635 16.5427 35.6121 16.5368 34.2606 16.5478C33.9924 16.5478 33.8758 16.474 33.9023 16.2036C33.9243 15.9747 33.8796 15.7427 33.9394 15.5145C34.0485 15.0986 34.3561 14.8549 34.7954 14.8431C34.9558 14.832 35.1168 14.832 35.2772 14.8431C35.5507 14.8748 35.6105 14.7529 35.6083 14.5085C35.5984 13.2808 35.6083 12.0532 35.6015 10.8256C35.6015 10.3529 35.7734 10.0013 36.2385 9.81812H36.7491Z" fill="#79505E"/>
<path d="M25.1391 24.8501C23.8548 24.8501 22.5708 24.8501 21.287 24.8501C20.6575 24.8501 20.3022 24.5096 20.2939 23.8965C20.2863 23.0382 20.2863 22.1804 20.2939 21.3231C20.2992 20.7256 20.6613 20.3813 21.2711 20.3813C23.8584 20.3813 26.4454 20.3813 29.0321 20.3813C29.6449 20.3813 30.0048 20.7263 30.0078 21.3216C30.0134 22.1888 30.0134 23.0559 30.0078 23.9231C30.0078 24.5022 29.6412 24.8486 29.048 24.8494C27.745 24.8513 26.4421 24.8516 25.1391 24.8501Z" fill="#79505E"/>
</g>
<defs>
<filter id="filter0_d_3571_14575" x="0" y="0" width="60" height="60" filterUnits="userSpaceOnUse" color-interpolation-filters="sRGB">
<feFlood flood-opacity="0" result="BackgroundImageFix"/>
<feColorMatrix in="SourceAlpha" type="matrix" values="0 0 0 0 0 0 0 0 0 0 0 0 0 0 0 0 0 0 127 0" result="hardAlpha"/>
<feOffset dy="6"/>
<feGaussianBlur stdDeviation="3"/>
<feComposite in2="hardAlpha" operator="out"/>
<feColorMatrix type="matrix" values="0 0 0 0 0.908333 0 0 0 0 0.836844 0 0 0 0 0.756944 0 0 0 1 0"/>
<feBlend mode="multiply" in2="BackgroundImageFix" result="effect1_dropShadow_3571_14575"/>
<feBlend mode="normal" in="SourceGraphic" in2="effect1_dropShadow_3571_14575" result="shape"/>
</filter>
<clipPath id="clip0_3571_14575">
<rect width="21.6898" height="28.3636" fill="white" transform="translate(19.0909 9.81812)"/>
</clipPath>
</defs>
</svg>
